<svg width="38" height="60" viewBox="0 0 38 60" fill="none" xmlns="http://www.w3.org/2000/svg">
<path d="M37.4409 58.3627L35.7233 57.3428L29.5053 40.6398C29.4226 40.4174 29.2534 40.2379 29.0365 40.1419L22.8013 37.3833C22.6371 36.6462 22.1781 35.9766 21.5037 35.4962L21.563 34.8138L21.88 34.4968L26.0323 32.3489L27.3839 33.7005C27.7276 34.0442 28.2849 34.0441 28.6287 33.7005C28.9725 33.3567 28.9725 32.7994 28.6286 32.4556L26.8218 30.649C26.5508 30.3779 26.1354 30.3137 25.7949 30.4896L23.1715 31.8467C23.1824 31.7235 23.1887 31.5992 23.1887 31.474C23.1887 31.4615 23.1885 31.4491 23.1879 31.4366L23.1274 30.0127C23.6805 29.3411 24.065 28.4346 24.1895 27.5195L26.7512 26.5776C26.9509 26.5043 27.1171 26.3611 27.2193 26.1746L33.9177 13.9562C34.1514 13.5299 33.9953 12.9948 33.569 12.7611C33.1425 12.5276 32.6077 12.6836 32.374 13.1098L25.834 25.0391L24.0574 25.6922C23.7296 24.6044 22.9585 23.703 21.9017 23.1227C22.1777 22.1975 22.1571 21.2054 21.8423 20.2897L21.8849 20.2621C22.1381 20.3457 22.4051 20.3896 22.6768 20.3896C22.9256 20.3896 23.1781 20.354 23.4261 20.2817C24.117 20.0805 24.7229 19.6205 25.1323 18.9866C25.5416 18.3527 25.7116 17.6111 25.6107 16.8986C25.5032 16.139 25.1064 15.5027 24.4935 15.1069C24.343 15.0097 24.1847 14.9306 24.0206 14.8695V13.9405C24.0206 13.4099 23.9743 12.8853 23.8861 12.3702L27.2824 10.8958C27.7877 10.6764 28.1651 10.2472 28.3183 9.71824C28.4716 9.18928 28.3815 8.62476 28.0717 8.1695L25.8391 4.88881V0.880233C25.8391 0.39411 25.4451 0 24.9588 0C24.4726 0 24.0786 0.39411 24.0786 0.880233V5.15981C24.0786 5.33644 24.1318 5.50908 24.2312 5.65509L26.6164 9.15994C26.6218 9.1678 26.6381 9.19175 26.6273 9.2286C26.6166 9.26557 26.5902 9.27707 26.5814 9.28082L23.4176 10.6543C23.1506 9.9525 22.798 9.28082 22.3612 8.65328L22.3349 8.6156C22.1085 8.29039 21.7369 8.08782 21.341 8.07385C20.9437 8.0573 20.56 8.23534 20.3114 8.54342L20.1025 8.80233H18.0147L17.8057 8.54354C17.5569 8.23546 17.1731 8.05859 16.776 8.07385C16.38 8.08793 16.0084 8.29039 15.7822 8.61525L15.7555 8.65363C15.3096 9.29409 14.9515 9.98055 14.6826 10.6981L11.4182 9.28082C11.4095 9.27707 11.3829 9.26557 11.3723 9.2286C11.3615 9.19175 11.3778 9.1678 11.3832 9.15994L13.7684 5.65509C13.8678 5.50908 13.9209 5.33644 13.9209 5.15981V0.880233C13.9209 0.39411 13.527 0 13.0407 0C12.5545 0 12.1605 0.39411 12.1605 0.880233V4.8887L9.92786 8.16938C9.61801 8.62464 9.52811 9.18905 9.68127 9.71812C9.83443 10.2471 10.2119 10.6764 10.7171 10.8956L14.2227 12.4175C14.1398 12.9174 14.0963 13.4261 14.0963 13.9404V14.8694C13.9322 14.9305 13.7739 15.0096 13.6235 15.1068C13.0106 15.5027 12.6137 16.1389 12.5062 16.8986C12.4054 17.6111 12.5754 18.3526 12.9846 18.9866C13.394 19.6205 13.9999 20.0805 14.6909 20.2817C14.9388 20.354 15.1912 20.3896 15.4401 20.3896C15.6854 20.3896 15.9272 20.3545 16.1584 20.2862C15.8343 21.2265 15.821 22.2476 16.1201 23.1943C15.1271 23.7857 14.3699 24.6728 14.0059 25.7157L12.1656 25.0391L5.62563 13.1098C5.39207 12.6836 4.85666 12.5276 4.43063 12.7611C4.00436 12.9948 3.84826 13.5299 4.08194 13.9562L10.7804 26.1746C10.8826 26.3611 11.0488 26.5043 11.2484 26.5776L13.7842 27.5099C13.8674 28.4316 14.2472 29.3054 14.8804 30.0312L14.812 31.4309C14.8113 31.4452 14.8109 31.4595 14.8109 31.4738C14.8109 31.5991 14.8171 31.7234 14.8282 31.8466L12.2046 30.4895C11.8643 30.3135 11.449 30.3779 11.1777 30.6489L0.385778 41.4409C0.0420174 41.7847 0.0420174 42.342 0.385778 42.6857C0.557717 42.8575 0.782939 42.9435 1.00828 42.9435C1.2335 42.9435 1.45884 42.8576 1.63078 42.6857L11.9675 32.3488L16.1199 34.4968L16.4483 34.8252L16.5356 35.5517C15.9129 36.016 15.4914 36.6365 15.3264 37.3266L8.96324 40.1418C8.74623 40.2378 8.57723 40.4174 8.49448 40.6397L2.27652 57.3427L0.55889 58.3626C0.140838 58.6108 0.00328663 59.1508 0.251395 59.5689C0.41594 59.846 0.708647 59.9998 1.0091 59.9998C1.16191 59.9998 1.31683 59.9601 1.45767 59.8764L3.44242 58.6979C3.61529 58.5952 3.7478 58.4366 3.81787 58.2482L10.0148 41.6017L15.5101 39.1705C15.5511 39.26 15.5955 39.3486 15.646 39.4349L15.1622 39.7425C12.809 41.2387 11.4042 43.7966 11.4042 46.5852V47.1676C11.4042 48.2233 11.5482 49.277 11.832 50.2993C11.962 50.7677 12.4469 51.0422 12.9155 50.912C13.3839 50.7819 13.6583 50.2967 13.5282 49.8283C13.2869 48.9594 13.1647 48.0641 13.1647 47.1676V46.5852C13.1647 44.4021 14.2645 42.3994 16.1067 41.2281L16.8831 40.7345C16.9129 40.7155 16.9409 40.6943 16.969 40.6733H21.0459C21.0933 40.7131 21.1425 40.7511 21.1953 40.7847L21.8928 41.2282C23.7901 42.4345 24.8349 44.2537 24.8349 46.3506V46.933C24.8349 50.8631 22.5279 54.5811 19.0939 56.1848C19.0342 56.2127 18.9655 56.2129 18.9054 56.1848C17.3557 55.4611 16.0107 54.3411 15.0156 52.9459C14.7333 52.5503 14.1838 52.4579 13.7879 52.7404C13.392 53.0227 13.3 53.5723 13.5822 53.9681C14.7533 55.6101 16.3363 56.9281 18.1603 57.7799C18.4269 57.9045 18.7134 57.9669 18.9997 57.9669C19.2859 57.9669 19.5723 57.9045 19.8389 57.78C23.8801 55.8928 26.5952 51.5338 26.5952 46.9332V46.3508C26.5952 43.6305 25.2606 41.2836 22.8372 39.7429L22.4386 39.4894C22.4936 39.3996 22.5418 39.3073 22.5866 39.2139L27.9845 41.6022L34.1814 58.2487C34.2516 58.437 34.3841 58.5958 34.5569 58.6984L36.5417 59.8769C36.6826 59.9605 36.8374 60.0003 36.9902 60.0003C37.2907 60.0003 37.5834 59.8465 37.7479 59.5694C37.9965 59.1511 37.8589 58.611 37.4409 58.3627ZM17.2579 38.684C17.0924 38.4658 17.0083 38.2312 17.0083 37.9864C17.0083 37.5661 17.2678 37.1628 17.7109 36.8793H20.4083C20.8508 37.162 21.1088 37.5634 21.1088 37.9864C21.1088 38.2379 21.0203 38.4784 20.846 38.7011C20.7938 38.7678 20.7496 38.8392 20.7104 38.9128H17.3979C17.3586 38.8328 17.3124 38.7558 17.2579 38.684ZM23.6535 18.0315C23.4764 18.3057 23.2142 18.5098 22.9338 18.5915C22.7957 18.6318 22.5278 18.6763 22.2887 18.5217C22.2886 18.5217 22.2886 18.5217 22.2886 18.5217C22.0493 18.3672 21.9797 18.1049 21.9594 17.9623C21.9185 17.6732 21.9966 17.3502 22.1737 17.0761C22.3506 16.8019 22.613 16.5978 22.8933 16.5161C22.9578 16.4973 23.0504 16.4776 23.1552 16.4776C23.275 16.4776 23.4109 16.5034 23.5386 16.5859C23.7779 16.7405 23.8475 17.0028 23.8678 17.1454C23.9087 17.4344 23.8306 17.7574 23.6535 18.0315ZM16.8667 10.1828L16.9094 10.2357C17.0765 10.4426 17.3282 10.5628 17.5941 10.5628H20.5229C20.7889 10.5628 21.0405 10.4426 21.2076 10.2357L21.2504 10.1828C21.9129 11.323 22.2603 12.6101 22.2603 13.9405V14.8741C21.6284 15.0942 21.0758 15.5307 20.6946 16.1209C20.2854 16.7548 20.1153 17.4965 20.2163 18.209C20.2592 18.5127 20.3492 18.7961 20.48 19.0529C20.2787 19.1437 20.0602 19.1912 19.8369 19.1912H18.28C18.0568 19.1912 17.8383 19.1435 17.6369 19.0529C17.7677 18.7961 17.8577 18.5126 17.9007 18.2089C18.0015 17.4963 17.8315 16.7547 17.4223 16.1208C17.0411 15.5307 16.4885 15.0942 15.8566 14.8739V13.9404C15.8568 12.61 16.2043 11.3228 16.8667 10.1828ZM14.4636 18.0315C14.2865 17.7574 14.2085 17.4344 14.2493 17.1453C14.2696 17.0027 14.3392 16.7404 14.5787 16.5858C14.7063 16.5033 14.842 16.4776 14.962 16.4776C15.0668 16.4776 15.1595 16.4973 15.2238 16.5161C15.5042 16.5977 15.7665 16.8018 15.9435 17.0761C16.1206 17.3502 16.1986 17.6732 16.1578 17.9623C16.1375 18.1049 16.0679 18.3672 15.8286 18.5217C15.8286 18.5217 15.8286 18.5217 15.8285 18.5217C15.5892 18.6763 15.3215 18.6318 15.1833 18.5915C14.9029 18.5098 14.6406 18.3058 14.4636 18.0315ZM17.8039 20.9175C17.9609 20.9402 18.1199 20.9517 18.28 20.9517H19.8372C19.959 20.9517 20.0799 20.9429 20.1999 20.9298C20.3605 21.4466 20.3726 22.0075 20.2372 22.5311C19.8427 22.4553 19.4292 22.4143 18.9999 22.4143C18.5752 22.4143 18.1626 22.4612 17.767 22.5475C17.6259 22.0149 17.638 21.4431 17.8039 20.9175ZM18.9999 24.1746C20.9797 24.1746 22.4727 25.3416 22.4727 26.8891C22.4727 27.6753 22.1213 28.5671 21.6182 29.0577C21.4391 29.2324 21.3426 29.4751 21.3533 29.7252L21.4283 31.491C21.4239 32.1197 21.1769 32.7102 20.7317 33.1553L20.0914 33.7958C19.9449 33.9423 19.8548 34.1357 19.8369 34.342L19.7695 35.1189H18.2567L18.1599 34.3131C18.1364 34.1174 18.0478 33.9352 17.9084 33.7958L17.2681 33.1553C16.8235 32.7107 16.5766 32.1213 16.5715 31.4937L16.6162 30.5792H18.8069C19.2932 30.5792 19.6872 30.1851 19.6872 29.6989C19.6872 29.2128 19.2932 28.8187 18.8069 28.8187H16.1613C15.7505 28.3237 15.527 27.7327 15.527 27.1239C15.5271 25.4977 17.0851 24.1746 18.9999 24.1746Z" fill="#790111"/>
</svg>
