<svg width="38" height="60" viewBox="0 0 38 60" fill="none" xmlns="http://www.w3.org/2000/svg">
<path d="M36.5708 42.0772L32.5221 38.0286V34.1841C32.5221 33.5391 32.1674 32.9519 31.5965 32.6518L30.4104 32.0281V31.811C30.4104 30.9032 29.7603 30.1373 28.8645 29.9897L26.5656 29.6113V29.3817C26.5656 28.4705 25.9789 27.6956 25.1642 27.4095C25.2971 26.9916 25.3883 26.5637 25.4412 26.1316L28.1807 24.7974C28.3725 24.704 28.5241 24.5444 28.6075 24.3479L30.5003 19.8878L34.8466 19.131C35.5318 19.0116 36.0291 18.42 36.0291 17.7245V14.9708C36.0291 14.4557 35.7503 13.979 35.3012 13.7264C34.8525 13.474 34.3 13.4833 33.86 13.7508L30.7503 15.6405C30.4256 15.8377 30.1755 16.1268 30.0269 16.4766L27.1087 23.3525L25.4089 24.1802C25.3525 23.8229 25.2681 23.4686 25.1557 23.1202L25.9222 22.2455C26.7664 21.2818 27.119 19.9567 26.8653 18.7008C26.8008 18.3815 26.6991 18.0766 26.5672 17.7887C29.3632 15.7197 31.0312 12.4141 31.0312 8.9339V7.40443C31.0312 4.00994 28.753 0.983525 25.4909 0.04483C25.0456 -0.0832061 24.5732 0.0689988 24.2866 0.432829C24 0.796541 23.9627 1.29183 24.1913 1.69433L25.59 4.15755V4.98907L24.9343 5.36163C24.529 5.592 24.2771 6.02468 24.2771 6.49096C24.2771 6.95724 24.529 7.38993 24.9343 7.6203L25.59 7.99285V9.7369C25.59 10.6801 25.0421 11.5565 24.1939 11.9695L21.949 13.0627C21.9465 13.0591 21.9441 13.0557 21.9416 13.0523L22.1576 12.6224C22.962 11.0212 22.8571 9.092 21.8836 7.5874C21.6182 7.17724 21.0706 7.06029 20.6609 7.32532C20.2508 7.59059 20.1335 8.1381 20.3988 8.54803C21.0331 9.52822 21.1015 10.7852 20.5773 11.8284L20.551 11.8809C20.0976 11.6677 19.5919 11.5478 19.0587 11.5478C18.5254 11.5478 18.0196 11.6676 17.5663 11.8809L17.5399 11.8284C17.0157 10.7852 17.0841 9.52822 17.7184 8.54803C17.9837 8.13798 17.8664 7.59059 17.4563 7.32532C17.0466 7.06017 16.499 7.17736 16.2336 7.5874C15.2601 9.09189 15.1552 11.0212 15.9596 12.6223L16.1756 13.0523C16.1731 13.0557 16.1707 13.0591 16.1682 13.0627L13.9233 11.9695C13.0753 11.5566 12.5273 10.6802 12.5273 9.7369V7.99273L13.1829 7.62018C13.5882 7.38981 13.8402 6.95713 13.8402 6.49084C13.8402 6.02456 13.5882 5.59188 13.1829 5.36151L12.5273 4.98896V4.15743L13.926 1.69433C14.1546 1.29159 14.1174 0.796423 13.8308 0.432711C13.5443 0.0689988 13.0716 -0.083324 12.6264 0.0447121C9.36435 0.983407 7.08599 4.00982 7.08599 7.40431V8.93402C7.08599 10.1468 7.28512 11.3445 7.67783 12.494C7.83582 12.9562 8.33841 13.2027 8.80045 13.0449C9.26261 12.887 9.50925 12.3843 9.35138 11.9222C9.02163 10.9573 8.85445 9.95194 8.85445 8.93402V7.40443C8.85445 5.44227 9.84419 3.6401 11.4011 2.55934L10.8741 3.4873C10.7985 3.62041 10.7587 3.77084 10.7587 3.92399V5.50358C10.7587 5.82166 10.9296 6.11522 11.2061 6.27238L11.5907 6.49084L11.2061 6.70931C10.9296 6.86646 10.7587 7.16003 10.7587 7.47811V9.73678C10.7587 11.3519 11.6969 12.8523 13.149 13.5594L15.5551 14.731C15.5445 14.8418 15.5386 14.954 15.5386 15.0675V15.1221C14.9628 15.2645 14.3931 15.4417 13.833 15.6551C13.3803 15.8276 12.9715 16.0742 12.6161 16.3774C12.0651 15.9714 11.557 15.5019 11.1062 14.9805C10.7867 14.6109 10.2285 14.5706 9.85905 14.8897C9.48956 15.2091 9.44888 15.7674 9.76827 16.1369C10.3003 16.7525 10.8997 17.3077 11.5499 17.7887C11.418 18.0766 11.3163 18.3815 11.2516 18.701C10.9979 19.9568 11.3506 21.282 12.1949 22.2456L12.9612 23.1201C12.8433 23.4859 12.7562 23.8582 12.6998 24.2336L10.8905 23.3525L7.97222 16.4764C7.82367 16.1267 7.57361 15.8377 7.24904 15.6406L4.13928 13.7508C3.6994 13.4834 3.14694 13.4741 2.69798 13.7264C2.24892 13.979 1.97009 14.4558 1.97009 14.9708V17.7245C1.97009 18.42 2.4675 19.0116 3.15271 19.131L7.49887 19.8878L9.3917 24.3479C9.47506 24.5443 9.62667 24.7039 9.81849 24.7974L12.6817 26.1919C12.734 26.5916 12.8209 26.9871 12.9416 27.3746C12.0716 27.628 11.4336 28.4311 11.4336 29.3817V29.6113L9.13457 29.9897C8.23879 30.1372 7.58871 30.9033 7.58871 31.811V32.0281L6.40278 32.6517C5.8318 32.9517 5.47705 33.539 5.47705 34.184V38.0285L1.42835 42.0771C1.08174 42.4238 0.890625 42.8849 0.890625 43.3753V46.5387C0.890625 47.3223 1.52821 47.96 2.31199 47.96H4.20718C4.66168 47.96 5.09212 47.7402 5.35868 47.372C5.62513 47.0038 5.69941 46.5262 5.55734 46.0943L4.15955 41.847L6.98661 39.0199C7.15237 38.8541 7.24551 38.6292 7.24551 38.3947V34.2066L7.99946 33.8102C8.30316 34.1851 8.75199 34.4389 9.27133 34.4849L11.4334 34.6765V41.0947L9.71498 42.2729C8.80929 42.894 8.44794 44.0449 8.83605 45.072L9.35221 46.438L10.4832 51.3003L8.31825 55.0027C8.23903 55.1381 8.19741 55.2922 8.19741 55.4491V58.6943C8.19741 59.4143 8.78324 60 9.50312 60H12.179C12.6184 60 13.0255 59.7812 13.2679 59.4148C13.5104 59.0482 13.5525 58.588 13.3806 58.1836L11.3293 53.3568L12.1875 51.8892C12.3016 51.6941 12.3367 51.4626 12.2854 51.2425L11.2822 46.9298L12.4791 46.7722C13.796 49.0048 16.2248 50.5068 18.9991 50.5068C21.7735 50.5068 24.2024 49.0048 25.5192 46.7722L26.7161 46.9298L25.7129 51.2425C25.6616 51.4626 25.6966 51.6941 25.8107 51.8892L26.6689 53.3568L24.6177 58.1833C24.4457 58.5877 24.4877 59.048 24.7301 59.4145C24.9726 59.7811 25.3797 60 25.8192 60H28.4951C29.215 60 29.8008 59.4143 29.8008 58.6943V55.4491C29.8008 55.2922 29.7591 55.1382 29.68 55.0027L27.5151 51.3003L28.646 46.438L29.1622 45.072C29.5503 44.0449 29.189 42.8939 28.2833 42.2728L26.5648 41.0947V39.0394C26.5648 38.551 26.169 38.1551 25.6806 38.1551C25.1921 38.1551 24.7964 38.551 24.7964 39.0394V42.941C24.7964 45.8371 22.6618 48.2438 19.8834 48.6708V43.4274C19.8834 42.939 19.4876 42.5431 18.9991 42.5431C18.5107 42.5431 18.1149 42.939 18.1149 43.4274V48.6708C15.3365 48.2438 13.2019 45.8371 13.2019 42.941V29.3818C13.2019 29.2037 13.3468 29.0587 13.5249 29.0587H18.1149V39.659C18.1149 40.1474 18.5107 40.5433 18.9991 40.5433C19.4876 40.5433 19.8834 40.1474 19.8834 39.659V29.0587H24.4733C24.6515 29.0587 24.7964 29.2036 24.7964 29.3818V35.271C24.7964 35.7593 25.1921 36.1552 25.6806 36.1552C26.169 36.1552 26.5648 35.7593 26.5648 35.271V34.6765L28.7268 34.4849C29.2461 34.4389 29.695 34.1851 29.9987 33.81L30.7527 34.2065V38.3947C30.7527 38.6292 30.8459 38.8541 31.0116 39.0199L33.8387 41.8468L32.441 46.0943C32.299 46.5261 32.3732 47.0037 32.6397 47.3718C32.9062 47.74 33.3366 47.9599 33.7912 47.9599H35.6864C36.47 47.9599 37.1077 47.3223 37.1077 46.5385V43.3751C37.1086 42.885 36.9176 42.4239 36.5708 42.0772ZM31.655 17.1678C31.6577 17.1611 31.6624 17.1557 31.6687 17.1519L34.2608 15.5768V17.4383L31.3231 17.9498L31.655 17.1678ZM3.73937 17.4382V15.5767L6.33157 17.1519C6.3377 17.1557 6.34242 17.1611 6.34501 17.1676L6.67689 17.9497L3.73937 17.4382ZM2.66014 46.1917V43.3754C2.66014 43.3573 2.66721 43.3404 2.67995 43.3276L2.75976 43.2478L3.72864 46.1916H2.66014V46.1917ZM27.7827 55.2597L28.0335 55.6886V58.2316H26.5197L27.7827 55.2597ZM27.5089 44.4471L27.2197 45.2123L26.2544 45.0852C26.4292 44.4947 26.5338 43.8745 26.5583 43.234L27.2842 43.7317C27.5158 43.8902 27.6081 44.1845 27.5089 44.4471ZM14.7889 27.2903C14.3969 26.3393 14.2934 25.2985 14.4851 24.294C15.15 24.5156 15.8934 24.4792 16.5531 24.1489L18.3689 23.2396C18.7677 23.04 19.2451 23.0372 19.6461 23.2324L21.5818 24.1747C21.9582 24.358 22.362 24.4465 22.7625 24.4465C23.0594 24.4465 23.3541 24.3973 23.6347 24.3024C23.8241 25.3041 23.7201 26.3419 23.329 27.2905H14.7889V27.2903ZM24.9685 13.5594C26.4205 12.8522 27.3588 11.3519 27.3588 9.73678V7.47811C27.3588 7.16003 27.188 6.86646 26.9114 6.70931L26.5268 6.49084L26.9114 6.27238C27.188 6.11522 27.3588 5.82166 27.3588 5.50358V3.92388C27.3588 3.77084 27.3191 3.62029 27.2434 3.48718L26.7165 2.55922C28.2734 3.63998 29.263 5.44215 29.263 7.40431V8.93402C29.263 11.8614 27.8573 14.6415 25.5015 16.3777C25.1459 16.0742 24.7371 15.8276 24.2842 15.655C23.7241 15.4416 23.1544 15.2644 22.5786 15.122V15.0674C22.5786 14.9538 22.5727 14.8417 22.5621 14.7309L24.9685 13.5594ZM17.348 14.6933C17.5199 13.9068 18.2218 13.3161 19.0591 13.3161C19.8964 13.3161 20.5984 13.9067 20.7703 14.6933H17.348ZM12.9859 19.0512C13.1477 18.2505 13.7001 17.5986 14.4635 17.3077C17.427 16.1784 20.6912 16.1784 23.6546 17.3077C24.4181 17.5986 24.9705 18.2505 25.1322 19.0512C25.2775 19.77 25.0757 20.5286 24.5924 21.0802L23.4717 22.3592C23.4717 22.3592 23.4717 22.3592 23.4715 22.3592C23.1939 22.6763 22.7352 22.7691 22.3557 22.5844L20.42 21.6421C19.9793 21.4276 19.4971 21.3205 19.0149 21.3205C18.5207 21.3205 18.0262 21.4332 17.5769 21.6582L15.7612 22.5674C15.3796 22.7583 14.9168 22.6677 14.6356 22.3468L13.5259 21.0801C13.0425 20.5286 12.8405 19.77 12.9859 19.0512ZM9.42849 32.7234C9.38828 32.7198 9.35799 32.6867 9.35799 32.6464V31.8111C9.35799 31.7731 9.38522 31.7409 9.42271 31.7348L11.4344 31.4036V32.9012L9.42849 32.7234ZM11.4805 58.2316H9.96669V55.6886L10.2175 55.2597L11.4805 58.2316ZM10.7805 45.2122L10.4913 44.4469C10.3922 44.1844 10.4845 43.8901 10.716 43.7314L11.4419 43.2338C11.4665 43.8743 11.5709 44.4944 11.7459 45.085L10.7805 45.2122ZM28.642 32.6464C28.642 32.6867 28.6117 32.7198 28.5715 32.7234L26.5656 32.9012V31.4036L28.5773 31.7348C28.6148 31.7409 28.642 31.773 28.642 31.8111V32.6464ZM35.3401 46.1917H34.2716L35.2405 43.2478L35.3203 43.3276C35.333 43.3404 35.3401 43.3573 35.3401 43.3754V46.1917Z" fill="#790111"/>
</svg>
