<svg width="44" height="60" viewBox="0 0 44 60" fill="none" xmlns="http://www.w3.org/2000/svg">
<path d="M42.3485 42.3029C41.8914 42.3029 41.5176 42.1396 41.172 41.7892C39.7983 40.3965 39.5442 36.7282 39.5622 35.4329C39.5657 35.1971 39.4745 34.9697 39.3091 34.8016C39.1435 34.6335 38.9175 34.5391 38.6817 34.5391H36.3468H35.3887V3.26642L37.1517 1.50322C37.4957 1.15928 37.4957 0.601816 37.1517 0.257871C36.8078 -0.085957 36.2502 -0.085957 35.9063 0.257871L33.8853 2.279C33.72 2.44424 33.6273 2.6683 33.6273 2.90174V34.5391H32.6692C32.1829 34.5391 31.7885 34.9333 31.7885 35.4197V48.1451C31.7885 48.6316 32.1829 49.0258 32.6692 49.0258H33.6273V53.0266C33.6273 55.9007 31.2891 58.2388 28.4151 58.2388H9.75881C8.98795 58.2388 8.36088 57.6118 8.36088 56.8409C8.36088 56.07 8.98795 55.443 9.75881 55.443H13.2203C15.0256 55.443 16.4943 53.9743 16.4943 52.169V51.0503H18.8826C19.3689 51.0503 19.7632 50.6561 19.7632 50.1696C19.7632 49.6832 19.3689 49.289 18.8826 49.289H13.2255V47.131H18.8826H24.1957C24.3378 47.131 24.4782 47.1238 24.6175 47.1125V48.2096C24.6175 48.696 25.0118 49.0902 25.4982 49.0902C25.9845 49.0902 26.3788 48.696 26.3788 48.2096V46.645C28.0415 45.8663 29.2335 44.2273 29.3567 42.2875L30.0447 31.4583C30.0755 30.9729 29.7069 30.5545 29.2217 30.5235C28.736 30.4938 28.3178 30.8613 28.287 31.3466L27.599 42.1758C27.4852 43.9668 25.9903 45.3695 24.1958 45.3695H18.8826H12.3448H7.03174C5.23713 45.3695 3.74229 43.9668 3.6285 42.1758L2.53936 25.0339C2.47901 24.0837 2.80444 23.1782 3.456 22.4841C4.10744 21.7899 4.99057 21.4076 5.94248 21.4076H10.4456C10.932 21.4076 11.3263 21.0134 11.3263 20.527V18.7501H13.0841H18.1431H19.9009V20.527C19.9009 21.0134 20.2953 21.4076 20.7816 21.4076H25.2848C26.2367 21.4076 27.1198 21.7899 27.7711 22.4841C28.4227 23.1783 28.7481 24.0838 28.6878 25.0339L28.5153 27.7491C28.4843 28.2345 28.853 28.653 29.3383 28.6839C29.8237 28.7126 30.2421 28.3462 30.273 27.8608L30.4455 25.1456C30.537 23.7049 30.0433 22.3314 29.0554 21.2788C28.3227 20.4981 27.3967 19.9783 26.3783 19.7615V17.9229C26.3783 17.4365 25.984 17.0423 25.4977 17.0423C25.0114 17.0423 24.617 17.4365 24.617 17.9229V19.6464H21.6623V18.7502H23.0271C23.5135 18.7502 23.9078 18.3559 23.9078 17.8695V13.4014C23.9078 12.9149 23.5135 12.5207 23.0271 12.5207H8.2001C7.71377 12.5207 7.31944 12.9149 7.31944 13.4014V17.8695C7.31944 18.3559 7.71377 18.7502 8.2001 18.7502H9.56487V19.6464H6.60905V17.9229C6.60905 17.4365 6.21471 17.0423 5.72838 17.0423C5.24205 17.0423 4.84772 17.4365 4.84772 17.9229V19.7616C3.82971 19.9786 2.90404 20.4984 2.17139 21.2788C1.1835 22.3317 0.689669 23.7047 0.78131 25.1456L1.87045 42.2875C1.99373 44.227 3.18541 45.8658 4.8476 46.6446V48.2096C4.8476 48.696 5.24194 49.0902 5.72826 49.0902C6.21459 49.0902 6.60893 48.696 6.60893 48.2096V47.1125C6.7485 47.1238 6.88924 47.131 7.03151 47.131H11.4639V50.1696C11.4639 50.6561 11.8582 51.0503 12.3446 51.0503H14.7328V52.169C14.7328 53.0031 14.0543 53.6816 13.2202 53.6816H9.75869C8.0167 53.6816 6.59944 55.0989 6.59944 56.8409C6.59944 58.5829 8.0167 60.0001 9.75869 60.0001H28.4152C32.2603 60.0001 35.3887 56.8718 35.3887 53.0267V49.0259H36.3468C36.8331 49.0259 37.2275 48.6317 37.2275 48.1452V36.3004H37.8216C37.8463 36.8234 37.9001 37.5314 38.0152 38.305C38.3396 40.485 38.9793 42.0729 39.9164 43.0243C40.596 43.7143 41.4143 44.0639 42.3485 44.0639C42.8349 44.0639 43.2292 43.6697 43.2292 43.1833C43.2292 42.6971 42.8349 42.3029 42.3485 42.3029ZM9.08076 16.989V14.282H22.1462V16.989H20.7814H19.0235V15.6354C19.0235 15.149 18.6292 14.7548 18.1429 14.7548C17.6565 14.7548 17.2622 15.149 17.2622 15.6354V16.989H13.9644V15.6354C13.9644 15.149 13.5701 14.7548 13.0838 14.7548C12.5974 14.7548 12.2031 15.149 12.2031 15.6354V16.989H10.4453H9.08076ZM35.4662 47.2646H33.55V36.3004H35.4662V47.2646Z" fill="#790111"/>
</svg>
