<svg width="44" height="60" viewBox="0 0 44 60" fill="none" xmlns="http://www.w3.org/2000/svg">
<path d="M42.7215 26.9673H39.4514L37.7857 25.7642V23.4716C37.7857 22.9847 37.391 22.5899 36.904 22.5899C36.4169 22.5899 36.0223 22.9847 36.0223 23.4716V24.8381L28.8686 24.1134C28.295 23.4419 27.6252 22.8556 26.8804 22.3754C27.1311 21.8797 27.3038 21.3511 27.3926 20.8016H33.2612C33.5281 20.8016 33.7804 20.6808 33.9478 20.4731L36.0223 17.8984V19.7143C36.0223 20.2012 36.4169 20.596 36.904 20.596C37.391 20.596 37.7857 20.2012 37.7857 19.7143V15.7099L39.2731 13.8638H40.8712C41.3582 13.8638 41.7529 13.4691 41.7529 12.9821C41.7529 12.4952 41.3582 12.1004 40.8712 12.1004H38.8511C38.5843 12.1004 38.332 12.2212 38.1646 12.4289L37.7856 12.8992V6.81183C37.7856 3.05576 34.7298 0 30.9739 0C27.9557 0 25.337 1.93975 24.4576 4.82681L22.5209 11.1846C22.3516 11.1556 22.1778 11.1396 22.0003 11.1396C21.8228 11.1396 21.649 11.1556 21.4798 11.1846L19.5431 4.82681C18.6634 1.93975 16.0448 0 13.0268 0C9.27083 0 6.21508 3.05576 6.21508 6.81183V12.8992L5.83606 12.4289C5.66865 12.2212 5.41637 12.1004 5.1495 12.1004H3.12946C2.6424 12.1004 2.24775 12.4952 2.24775 12.9821C2.24775 13.4691 2.6424 13.8638 3.12946 13.8638H4.72758L6.21496 15.7099V25.7643L4.54924 26.9674H1.27917C0.792113 26.9674 0.397461 27.3622 0.397461 27.8491C0.397461 28.3361 0.792113 28.7308 1.27917 28.7308H4.83432C5.0196 28.7308 5.20029 28.6724 5.35065 28.5639L6.21508 27.9396V31.2047C6.21508 31.6916 6.60973 32.0864 7.09678 32.0864C7.58384 32.0864 7.97849 31.6916 7.97849 31.2047V26.666L8.06748 26.6017L13.883 26.0126C13.2974 27.2086 12.9675 28.5517 12.9675 29.9707C12.9675 31.1844 13.515 34.4599 14.598 39.7371L9.32127 43.6221C9.11142 43.7766 8.98069 44.016 8.96412 44.276L8.25052 55.4565L6.33922 58.6673C6.09011 59.0859 6.22742 59.627 6.64582 59.876C6.78713 59.9602 6.94254 60.0001 7.09596 60.0001C7.39656 60.0001 7.68952 59.8464 7.85434 59.5693L9.87439 56.1756C9.94587 56.0556 9.98784 55.9203 9.99665 55.7809L10.6977 44.7985L14.9925 41.6363C15.4329 43.7308 15.9442 46.0903 16.5267 48.7149C17.2 51.7481 19.761 53.1059 22.0004 53.1059C24.2399 53.1059 26.8009 51.7482 27.4742 48.7146C27.5565 48.3434 27.6385 47.9725 27.7202 47.6023C27.8251 47.1267 27.5245 46.6563 27.049 46.5515C26.5731 46.4469 26.103 46.7474 25.9982 47.2228C25.9169 47.5924 25.8347 47.9625 25.7526 48.3328C25.2597 50.5542 23.4234 51.3425 22.0006 51.3425C20.5777 51.3425 18.7414 50.5542 18.2485 48.3328C17.502 44.9696 16.9073 42.1999 16.4352 39.9192C16.4342 39.9144 14.7311 30.8226 14.7311 29.9708C14.7311 27.8562 15.6393 25.95 17.0855 24.6204V26.5825C17.0855 27.0694 17.4801 27.4642 17.9672 27.4642C18.4542 27.4642 18.8489 27.0694 18.8489 26.5825V23.4205C19.8028 22.9596 20.872 22.7011 22.0006 22.7011C23.176 22.7011 24.2862 22.9833 25.2698 23.4808V32.1862C25.2698 33.5726 24.1418 34.7006 22.7554 34.7006H21.3633C19.9769 34.7006 18.8489 33.5726 18.8489 32.1862V30.34C18.8489 29.8531 18.4542 29.4583 17.9672 29.4583C17.4801 29.4583 17.0855 29.8531 17.0855 30.34V32.1862C17.0855 34.5449 19.0044 36.464 21.3633 36.464H22.7554C25.1141 36.464 27.0332 34.5449 27.0332 32.1862V24.7323C28.4104 26.056 29.27 27.9142 29.27 29.9706C29.27 30.9209 28.8411 34.0489 26.7974 43.5557C26.695 44.0317 26.9979 44.5007 27.4741 44.6031C27.9497 44.7055 28.419 44.4024 28.5213 43.9264C28.6928 43.1286 28.8549 42.3666 29.0086 41.6364L33.3033 44.7985L34.0043 55.7809C34.0132 55.9204 34.0551 56.0556 34.1266 56.1756L36.1466 59.5693C36.3115 59.8462 36.6045 60.0001 36.905 60.0001C37.0584 60.0001 37.2139 59.9602 37.3552 59.876C37.7737 59.6269 37.911 59.0857 37.6618 58.6673L35.7505 55.4565L35.0369 44.276C35.0203 44.016 34.8896 43.7766 34.6797 43.6221L29.4038 39.7377C30.4982 34.4142 31.0336 31.2032 31.0336 29.9707C31.0336 28.5517 30.7037 27.2086 30.1181 26.0126L35.9336 26.6017L36.0226 26.666V31.2047C36.0226 31.6916 36.4173 32.0864 36.9043 32.0864C37.3914 32.0864 37.786 31.6916 37.786 31.2047V27.9395L38.6505 28.5638C38.8007 28.6723 38.9814 28.7307 39.1668 28.7307H42.7219C43.209 28.7307 43.6036 28.3359 43.6036 27.849C43.6036 27.3621 43.2084 26.9673 42.7215 26.9673ZM26.1446 5.34067C26.7963 3.20107 28.737 1.76341 30.9739 1.76341C33.7576 1.76341 36.0221 4.02811 36.0221 6.81171V15.0876L32.8392 19.038H27.3907C27.1451 17.5315 26.2818 16.23 25.0692 15.4034C25.0708 15.382 25.0725 15.3606 25.0725 15.3389V14.2117C25.0725 13.3386 24.7057 12.55 24.119 11.99L26.1446 5.34067ZM23.3091 14.2118V14.6169C22.8895 14.5134 22.4514 14.4573 22.0003 14.4573C21.5492 14.4573 21.1111 14.5132 20.6915 14.6169V14.2118C20.6915 13.4901 21.2786 12.903 22.0003 12.903C22.722 12.903 23.3091 13.4901 23.3091 14.2118ZM7.97849 6.81183C7.97849 4.02811 10.2432 1.76341 13.0268 1.76341C15.2635 1.76341 17.2042 3.20107 17.8561 5.34067L19.8816 11.9902C19.2949 12.55 18.9281 13.3386 18.9281 14.2118V15.339C18.9281 15.3607 18.9299 15.3821 18.9314 15.4035C17.7189 16.2301 16.8555 17.5316 16.6099 19.0382H11.1614L7.97849 15.0878V6.81183ZM15.1321 24.1135L7.97837 24.8383V17.8985L10.0528 20.4732C10.2203 20.681 10.4725 20.8017 10.7394 20.8017H16.608C16.6967 21.3512 16.8695 21.8798 17.1203 22.3755C16.3754 22.8557 15.7056 23.4419 15.1321 24.1135ZM18.6904 21.5687C18.4358 21.0603 18.3012 20.5012 18.3012 19.92C18.3012 17.8803 19.9605 16.2208 22.0003 16.2208C24.0401 16.2208 25.6995 17.8803 25.6995 19.92C25.6995 20.5012 25.5648 21.0603 25.3102 21.5687C24.2845 21.1631 23.1685 20.9378 22.0003 20.9378C20.8321 20.9378 19.7162 21.1631 18.6904 21.5687Z" fill="#790111"/>
</svg>
