<svg width="31" height="31" viewBox="0 0 31 31" fill="none" xmlns="http://www.w3.org/2000/svg">
<path d="M24.5117 0.5C26.0612 0.5 27.3861 1.05013 28.4863 2.15039C29.5866 3.25065 30.1367 4.57552 30.1367 6.125V24.875C30.1367 26.4245 29.5866 27.7493 28.4863 28.8496C27.3861 29.9499 26.0612 30.5 24.5117 30.5H20.8398V18.8789H24.7266L25.3125 14.3477H20.8398V11.457C20.8398 10.7279 20.9928 10.181 21.2988 9.81641C21.6048 9.45182 22.2005 9.26953 23.0859 9.26953L25.4688 9.25V5.20703C24.6484 5.08984 23.4896 5.03125 21.9922 5.03125C20.2214 5.03125 18.8053 5.55208 17.7441 6.59375C16.6829 7.63542 16.1523 9.10677 16.1523 11.0078V14.3477H12.2461V18.8789H16.1523V30.5H5.76172C4.21224 30.5 2.88737 29.9499 1.78711 28.8496C0.686849 27.7493 0.136719 26.4245 0.136719 24.875V6.125C0.136719 4.57552 0.686849 3.25065 1.78711 2.15039C2.88737 1.05013 4.21224 0.5 5.76172 0.5H24.5117Z" fill="white"/>
</svg>
