<svg width="50" height="60" viewBox="0 0 50 60" fill="none" xmlns="http://www.w3.org/2000/svg">
<path d="M49.6269 46.9433L43.7282 41.8198L42.9287 34.9309C42.8905 34.6026 42.6709 34.3239 42.3606 34.2101L37.1456 32.2967C36.7102 31.2252 36.2257 30.1699 35.6887 29.134L34.8792 27.5627L37.7789 26.8384C38.0371 26.7739 38.2519 26.5955 38.3627 26.3536L42.0886 18.2164L46.9225 16.3411C47.3733 16.1663 47.5969 15.6592 47.4221 15.2085C47.2472 14.7579 46.7402 14.5343 46.2894 14.709L41.1241 16.7127C40.9116 16.7951 40.7397 16.9571 40.6448 17.1644L36.9462 25.2419L34.0557 25.9639L30.4045 18.8758C30.2014 18.4584 29.9541 18.065 29.6665 17.7023C30.954 17.2509 31.8875 15.9464 31.8875 14.4109C31.8875 14.1334 31.8562 13.8638 31.7985 13.6049L34.556 10.6446C34.6698 10.5225 34.7462 10.3703 34.7765 10.2063L35.8265 4.49385L39.8191 1.58255C40.2097 1.29779 40.2955 0.75019 40.0106 0.359567C39.7258 -0.0309391 39.1782 -0.11672 38.7875 0.168165L34.5128 3.2851C34.3317 3.41709 34.2082 3.61363 34.1676 3.83409L33.1007 9.63847L30.9393 11.9589C30.3579 11.3356 29.557 10.9498 28.674 10.9498C28.045 10.9498 27.4582 11.1462 26.9621 11.4841C26.8646 11.387 26.7625 11.2965 26.6567 11.2125L27.1672 9.58327C27.1917 9.50495 27.2475 9.43831 27.3204 9.4005L29.0781 8.48632C29.507 8.26329 29.6737 7.73472 29.4507 7.30582C29.2276 6.87703 28.6991 6.71014 28.2702 6.93317L26.5125 7.84734C26.0398 8.09325 25.6764 8.52239 25.5085 9.0275V3.53357C25.5085 3.05016 25.1166 2.65826 24.6332 2.65826C24.1498 2.65826 23.7579 3.05016 23.7579 3.53357V9.02762C23.5901 8.5225 23.2267 8.09325 22.7539 7.84723L20.9962 6.93305C20.5672 6.7099 20.0388 6.87691 19.8157 7.3057C19.5927 7.7346 19.7595 8.26318 20.1884 8.48621L21.946 9.40038C22.0199 9.4389 22.0744 9.50379 22.0993 9.58327L22.6033 11.192C22.4994 11.2726 22.3998 11.36 22.3036 11.4531C21.8173 11.1339 21.2465 10.9498 20.6364 10.9498C19.831 10.9498 19.0944 11.2715 18.5298 11.8007L16.5158 9.63847L15.4489 3.83409C15.4084 3.61363 15.2848 3.41709 15.1036 3.2851L10.829 0.168165C10.4382 -0.11672 9.89063 -0.0308224 9.60598 0.359684C9.32121 0.750307 9.40687 1.2979 9.79749 1.58267L13.7902 4.49396L14.8402 10.2064C14.8705 10.3705 14.9469 10.5225 15.0607 10.6447L17.5789 13.3482C17.4783 13.6832 17.4233 14.0402 17.4233 14.411C17.4233 15.933 18.3404 17.2277 19.6103 17.6901C19.3169 18.0583 19.0652 18.4584 18.8592 18.8831L15.2307 25.8814L12.6706 25.2419L8.97202 17.1644C8.87713 16.9573 8.70522 16.7951 8.4927 16.7127L3.32754 14.709C2.87669 14.5339 2.36971 14.7578 2.19488 15.2085C2.02005 15.6592 2.24366 16.1663 2.69439 16.3411L7.52822 18.2164L11.2541 26.3536C11.3649 26.5955 11.5797 26.7739 11.8379 26.8384L14.4025 27.479L13.5454 29.132C12.9527 30.275 12.4232 31.441 11.9544 32.6268L7.63886 34.2101C7.32865 34.3239 7.109 34.6027 7.07084 34.9309L6.27127 41.8198L0.372596 46.9433C0.00764925 47.2602 -0.0312146 47.8131 0.285765 48.178C0.458844 48.3774 0.702181 48.4794 0.947035 48.4794C1.15046 48.4794 1.35493 48.4089 1.52066 48.2649L7.67574 42.9187C7.84065 42.7755 7.94603 42.5758 7.97124 42.3588L8.74782 35.6679L11.1819 34.7749C10.2925 37.5046 9.71965 40.3299 9.47643 43.2259C9.06095 48.1716 9.61987 53.0755 11.1374 57.801C11.516 58.9801 12.5141 59.8121 13.742 59.9725C13.8836 59.9909 14.0243 60 14.1638 60C15.2347 60 16.2253 59.4648 16.817 58.5426L23.5681 48.0201C23.8473 47.585 24.1119 47.1434 24.365 46.6968C24.532 46.7047 24.7019 46.7098 24.8756 46.7109C25.1264 47.153 25.3886 47.5898 25.6647 48.02L27.322 50.603C27.4892 50.8636 27.7713 51.0058 28.0594 51.0058C28.2213 51.0058 28.385 50.9609 28.5313 50.8671C28.9381 50.606 29.0565 50.0646 28.7954 49.6578L27.1381 47.0747C27.0297 46.9056 26.9237 46.7353 26.8194 46.5643C30.1141 46.0202 31.8991 44.0643 32.8421 42.3824C34.3457 39.7006 34.5934 36.0493 33.6359 32.8735L35.8041 33.669C36.9889 36.7756 37.7308 40.0244 38.012 43.3721C38.408 48.0865 37.8753 52.7609 36.4287 57.2654C36.2568 57.8006 35.8215 58.1636 35.2641 58.2364C34.7068 58.309 34.1928 58.0702 33.8892 57.5971L30.812 52.8007C30.5508 52.3938 30.0093 52.2756 29.6027 52.5366C29.1958 52.7977 29.0775 53.3391 29.3386 53.746L32.4158 58.5423C33.0075 59.4646 33.998 59.9997 35.0691 59.9997C35.2085 59.9997 35.3494 59.9906 35.4908 59.9721C36.7187 59.8118 37.7168 58.9796 38.0954 57.8005C39.613 53.075 40.1718 48.1713 39.7564 43.2254C39.5036 40.216 38.8957 37.2827 37.9457 34.4545L41.2518 35.6676L42.0284 42.3585C42.0536 42.5754 42.159 42.7751 42.3239 42.9183L48.479 48.2645C48.6447 48.4084 48.849 48.479 49.0526 48.479C49.2973 48.479 49.5408 48.3769 49.7139 48.1777C50.0307 47.8131 49.9919 47.2601 49.6269 46.9433ZM27.4533 27.655L27.3365 27.0593C27.2436 26.5849 26.7838 26.2754 26.3093 26.3685C25.8349 26.4614 25.5256 26.9213 25.6185 27.3958L25.7352 27.9914C25.8022 28.3336 25.8606 28.6763 25.9139 29.0191C25.5026 29.1308 25.0732 29.1893 24.6332 29.1893C24.1821 29.1893 23.7424 29.1275 23.3217 29.0102C23.3743 28.6694 23.4314 28.3294 23.4975 27.9914L24.6163 22.2796L24.8965 23.7104C24.9783 24.1279 25.3444 24.4176 25.7546 24.4176C25.8103 24.4176 25.8669 24.4122 25.9238 24.4011C26.3981 24.3082 26.7074 23.8483 26.6145 23.3739L25.6453 18.4265C26.1183 18.2643 26.5563 17.9927 26.9313 17.6296C28.2976 18.4015 29.1895 19.8031 29.2912 21.3925L29.4608 24.0429C29.547 25.3911 29.0855 26.6761 28.1612 27.6614C27.9723 27.8628 27.7689 28.0447 27.5546 28.2082C27.5225 28.0238 27.4893 27.8393 27.4533 27.655ZM24.6192 42.0141C24.0861 40.5654 23.6809 39.0672 23.4092 37.5265C23.3253 37.0505 22.8714 36.7327 22.3952 36.8165C21.9192 36.9004 21.6013 37.3544 21.6852 37.8304C22.0807 40.0736 22.7402 42.233 23.653 44.2876C23.5648 44.4706 23.4742 44.6526 23.3815 44.8339C21.2539 44.4723 19.6163 43.3471 18.5953 41.5262C16.9536 38.5979 17.1138 34.1026 18.9683 31.0699C19.3574 30.4336 19.8248 29.8637 20.3629 29.3687C20.6918 29.6503 21.0433 29.8973 21.4143 30.1059C21.2837 31.3587 21.2364 32.6223 21.2766 33.8842C21.2916 34.3579 21.6804 34.7317 22.151 34.7317C22.1604 34.7317 22.1699 34.7316 22.1793 34.7312C22.6625 34.716 23.0418 34.3118 23.0264 33.8286C22.9938 32.8054 23.023 31.7812 23.1103 30.7634C23.6027 30.8788 24.1124 30.9401 24.6332 30.9401C25.1435 30.9401 25.6429 30.8813 26.1259 30.7704C26.4603 34.6055 25.9439 38.4335 24.6192 42.0141ZM24.6163 12.236C25.0617 12.236 25.4896 12.4497 25.8204 12.823C25.5912 13.2989 25.4608 13.8387 25.4608 14.4109C25.4608 15.05 25.6231 15.6488 25.9048 16.1632C25.566 16.5997 25.1071 16.8506 24.6164 16.8506C24.1499 16.8506 23.7087 16.6213 23.3742 16.2207C23.6755 15.6938 23.8499 15.0739 23.8499 14.4108C23.8499 13.8164 23.7099 13.2567 23.4639 12.7674C23.7876 12.429 24.1958 12.236 24.6163 12.236ZM22.3139 17.6417C22.6863 17.9981 23.1205 18.2649 23.5874 18.4256L21.7796 27.655C21.7449 27.8318 21.7144 28.0095 21.6832 28.1871C21.4792 28.029 21.2857 27.8541 21.1051 27.6615C20.1808 26.6763 19.7192 25.3912 19.8056 24.043L19.9752 21.3926C20.076 19.8126 20.9597 18.4163 22.3139 17.6417ZM30.7589 26.7874C31.0724 26.0006 31.2317 25.1551 31.2213 24.2847L32.3108 26.3998L30.7589 26.7874ZM28.674 12.7004C29.4805 12.7004 30.1366 13.4678 30.1366 14.4109C30.1366 15.354 29.4805 16.1214 28.674 16.1214C27.8674 16.1214 27.2113 15.354 27.2113 14.4109C27.2113 13.4678 27.8676 12.7004 28.674 12.7004ZM20.6364 12.7004C21.443 12.7004 22.0991 13.4678 22.0991 14.4109C22.0991 15.354 21.443 16.1214 20.6364 16.1214C19.83 16.1214 19.1738 15.354 19.1738 14.4109C19.1738 13.4678 19.83 12.7004 20.6364 12.7004ZM18.0457 24.2549C18.0319 25.1002 18.178 25.9223 18.4699 26.6905L16.9763 26.3175L18.0457 24.2549ZM15.0993 29.9377L16.1481 27.9149L18.7028 28.5529C18.2425 29.04 17.8305 29.5747 17.4748 30.1566C17.363 30.3395 17.2578 30.5273 17.1565 30.7178L14.2022 31.8017C14.4832 31.1742 14.7808 30.5521 15.0993 29.9377ZM22.0946 47.0749L15.3435 57.5973C15.0399 58.0705 14.5256 58.3091 13.9687 58.2367C13.4113 58.1638 12.9759 57.8009 12.804 57.2658C11.3574 52.7613 10.8249 48.0869 11.2208 43.3724C11.4921 40.1424 12.1905 37.0037 13.3034 33.9966L16.2635 32.9105C15.319 36.0777 15.5704 39.7111 17.0682 42.3826C17.9517 43.9584 19.5747 45.7742 22.4852 46.4448C22.358 46.656 22.2283 46.8663 22.0946 47.0749ZM31.315 41.5264C30.195 43.5242 28.3322 44.6839 25.8947 44.9171C25.7875 44.7086 25.6824 44.4991 25.581 44.2883C27.5597 39.8484 28.3342 34.9834 27.8224 30.1217C28.3244 29.843 28.7921 29.4961 29.2151 29.0854C29.8925 29.6402 30.4732 30.3034 30.942 31.0701C32.7965 34.1028 32.9569 38.598 31.315 41.5264ZM32.732 30.6773C32.6372 30.5009 32.5394 30.3266 32.4356 30.1567C32.064 29.549 31.6341 28.9946 31.1521 28.4935L33.1344 27.9985L34.1334 29.9378C34.3949 30.4423 34.6432 30.9518 34.8795 31.4653L32.732 30.6773Z" fill="#790111"/>
</svg>
