<svg width="52" height="54" viewBox="0 0 52 54" fill="none" xmlns="http://www.w3.org/2000/svg">
<path d="M50.5188 35.3795L41.0891 31.2945C40.9786 31.2466 40.8594 31.222 40.7391 31.222H22.8737V25.4771H32.6974V28.0477C32.6974 28.5341 33.0918 28.9284 33.5781 28.9284H40.7392C41.2256 28.9284 41.6198 28.5341 41.6198 28.0477V24.5964C41.6198 24.3396 41.5076 24.0955 41.3127 23.9281L34.6692 18.2285C34.5095 18.0915 34.3062 18.0161 34.0957 18.0161H18.3434C17.857 18.0161 17.4627 18.4105 17.4627 18.8968V24.5964C17.4627 25.0828 17.857 25.4771 18.3434 25.4771H21.1124V31.3412L20.9953 31.3646C19.7971 31.6039 18.6525 32.0025 17.5856 32.5377L11.7989 16.2165C11.7989 16.2164 11.7988 16.2162 11.7988 16.2161L6.29344 0.687969C6.16887 0.336524 5.83629 0.101562 5.4634 0.101562H0.880664C0.394336 0.101562 0 0.495898 0 0.982227C0 1.46855 0.394336 1.86289 0.880664 1.86289H4.84125L10.01 16.4413L3.96574 27.9073C3.90316 28.0262 3.86848 28.1577 3.86449 28.2918L3.46875 41.6186C3.4623 41.8341 3.5352 42.0445 3.67359 42.21L6.06773 45.0714C6.24188 45.2796 6.49184 45.3869 6.74355 45.3869C6.94289 45.3869 7.1434 45.3197 7.30816 45.1817C7.68117 44.8697 7.73051 44.3143 7.41844 43.9412L5.2391 41.3366L5.61879 28.5484L10.8107 18.6996L16.0392 33.4461C13.6796 35.0498 11.8425 37.3824 10.8655 40.1442C9.42129 41.6043 8.52762 43.6104 8.52762 45.8214C8.52762 50.276 12.1516 53.9001 16.6063 53.9001C21.0608 53.9001 24.6848 50.2761 24.6848 45.8214C24.6848 42.4406 22.5961 39.5397 19.642 38.337L18.1799 34.213C19.163 33.6968 20.225 33.3145 21.341 33.0916L21.8824 32.9831H21.9888C21.9904 32.9831 21.9919 32.9833 21.9934 32.9833H37.6553C37.6568 32.9833 37.6583 32.9831 37.6598 32.9831H40.5566L49.8187 36.9955C50.2651 37.1888 50.7836 36.9836 50.9768 36.5375C51.1702 36.0913 50.965 35.5727 50.5188 35.3795ZM16.6508 35.171L17.5846 37.8043C17.2637 37.7653 16.9376 37.743 16.6064 37.743C15.5954 37.743 14.6282 37.9313 13.7354 38.272C14.5141 37.0672 15.5044 36.0172 16.6508 35.171ZM22.9235 45.8213C22.9235 49.3048 20.0896 52.1387 16.6063 52.1387C13.1229 52.1387 10.2889 49.3047 10.2889 45.8213C10.2889 42.3379 13.1229 39.5041 16.6063 39.5041C20.0897 39.5041 22.9235 42.3381 22.9235 45.8213ZM19.224 23.7157V19.7773H33.7697L39.8585 25.0011V27.1668H34.4586V24.5962C34.4586 24.1099 34.0644 23.7155 33.578 23.7155H19.224V23.7157Z" fill="#790111"/>
</svg>
