<svg width="31" height="31" viewBox="0 0 31 31" fill="none" xmlns="http://www.w3.org/2000/svg">
<path d="M30.0485 9.34208C30.0317 8.07979 29.7954 6.83004 29.3502 5.64875C28.9641 4.65234 28.3744 3.74741 27.6188 2.9918C26.8632 2.23619 25.9583 1.6465 24.9618 1.26042C23.7957 0.822678 22.5638 0.585985 21.3185 0.560417C19.7152 0.48875 19.2068 0.46875 15.1368 0.46875C11.0668 0.46875 10.5452 0.46875 8.9535 0.560417C7.70877 0.586173 6.47742 0.822863 5.31184 1.26042C4.31527 1.64623 3.4102 2.23582 2.65456 2.99147C1.89891 3.74712 1.30932 4.65218 0.923502 5.64875C0.484888 6.81397 0.248708 8.0456 0.225169 9.29042C0.153503 10.8954 0.131836 11.4037 0.131836 15.4737C0.131836 19.5437 0.131836 20.0637 0.225169 21.6571C0.250169 22.9037 0.485169 24.1337 0.923502 25.3021C1.30997 26.2983 1.9 27.203 2.6559 27.9584C3.4118 28.7137 4.31694 29.303 5.3135 29.6887C6.47589 30.1441 7.70746 30.3977 8.95517 30.4387C10.5602 30.5104 11.0685 30.5321 15.1385 30.5321C19.2085 30.5321 19.7302 30.5321 21.3218 30.4387C22.5671 30.4142 23.7991 30.1781 24.9652 29.7404C25.9613 29.3539 26.866 28.764 27.6216 28.0085C28.3771 27.2529 28.967 26.3482 29.3535 25.3521C29.7918 24.1854 30.0268 22.9554 30.0518 21.7071C30.1235 20.1037 30.1452 19.5954 30.1452 15.5237C30.1418 11.4537 30.1418 10.9371 30.0485 9.34208ZM15.1268 23.1704C10.8702 23.1704 7.42183 19.7221 7.42183 15.4654C7.42183 11.2087 10.8702 7.76042 15.1268 7.76042C17.1703 7.76042 19.1301 8.57219 20.5751 10.0172C22.0201 11.4621 22.8318 13.4219 22.8318 15.4654C22.8318 17.5089 22.0201 19.4687 20.5751 20.9137C19.1301 22.3586 17.1703 23.1704 15.1268 23.1704ZM23.1385 9.27208C22.9025 9.2723 22.6688 9.22598 22.4507 9.13577C22.2326 9.04555 22.0345 8.91322 21.8676 8.74634C21.7007 8.57946 21.5684 8.38131 21.4782 8.16323C21.3879 7.94515 21.3416 7.71142 21.3418 7.47542C21.3418 7.23958 21.3883 7.00606 21.4785 6.78818C21.5688 6.5703 21.7011 6.37233 21.8678 6.20557C22.0346 6.03881 22.2326 5.90653 22.4504 5.81628C22.6683 5.72603 22.9018 5.67958 23.1377 5.67958C23.3735 5.67958 23.607 5.72603 23.8249 5.81628C24.0428 5.90653 24.2408 6.03881 24.4075 6.20557C24.5743 6.37233 24.7066 6.5703 24.7968 6.78818C24.8871 7.00606 24.9335 7.23958 24.9335 7.47542C24.9335 8.46875 24.1302 9.27208 23.1385 9.27208Z" fill="white"/>
</svg>
