<svg width="31" height="31" viewBox="0 0 31 31" fill="none" xmlns="http://www.w3.org/2000/svg">
<path d="M0.135742 4.28378V26.7162C0.135742 28.8333 1.80241 30.5 3.91953 30.5H26.352C27.388 30.5 28.379 30.0045 29.0096 29.3739C29.6853 28.6982 30.1357 27.8423 30.1357 26.7162V4.28378C30.1357 2.16667 28.4691 0.5 26.352 0.5H3.91953C2.7934 0.5 1.93754 0.95045 1.26187 1.62613C0.631238 2.25676 0.135742 3.24775 0.135742 4.28378ZM4.1898 7.25676C4.1898 5.81532 5.36097 4.55405 6.80241 4.55405C8.2889 4.55405 9.50511 5.81532 9.50511 7.25676C9.50511 8.74324 8.2889 9.91441 6.80241 9.91441C5.36097 9.91441 4.1898 8.74324 4.1898 7.25676ZM11.442 25.7703V12.0315C11.442 11.7162 11.7574 11.4459 11.9826 11.4459H15.8114C16.352 11.4459 16.352 12.0766 16.352 12.482C17.433 11.4009 18.8294 11.1306 20.2709 11.1306C23.7844 11.1306 26.0366 12.7973 26.0366 16.491V25.7703C26.0366 26.0856 25.7664 26.3559 25.4961 26.3559H21.5321C21.2168 26.3559 20.9916 26.0405 20.9916 25.7703V17.3919C20.9916 15.9955 20.5862 15.2297 19.0096 15.2297C17.0276 15.2297 16.5321 16.536 16.5321 18.2928V25.7703C16.5321 26.0856 16.2168 26.3559 15.9015 26.3559H11.9826C11.7574 26.3559 11.442 26.0405 11.442 25.7703ZM4.27989 25.7703V12.0315C4.27989 11.7162 4.5952 11.4459 4.82043 11.4459H8.73935C9.09971 11.4459 9.32493 11.6712 9.32493 12.0315V25.7703C9.32493 26.0856 9.05466 26.3559 8.73935 26.3559H4.82043C4.55016 26.3559 4.27989 26.0405 4.27989 25.7703Z" fill="white"/>
</svg>
