<svg width="52" height="60" viewBox="0 0 52 60" fill="none" xmlns="http://www.w3.org/2000/svg">
<path d="M50.9976 35.1313C50.8361 34.5072 50.3689 34.0311 49.748 33.858L45.7959 32.7567L45.1914 27.1828C45.3265 26.9331 45.3941 26.6491 45.3821 26.3592C45.3632 25.8982 45.1456 25.4685 44.7876 25.1822L44.7724 25.17C43.2052 23.9162 41.1844 23.4555 39.2286 23.9048L37.3511 24.3365C36.0068 23.2797 34.4224 22.5153 32.6953 22.1379C32.8314 21.9635 32.9533 21.7776 33.0585 21.5812L34.0361 21.6648C34.2013 21.6789 34.3665 21.686 34.5316 21.686C35.7091 21.686 36.87 21.329 37.8458 20.6594L38.5175 20.1984C39.1224 19.7834 39.4836 19.0974 39.4836 18.3637V8.76047C39.5263 8.73851 39.5679 8.7129 39.6077 8.68331L43.2247 5.99976C43.5603 5.75064 43.7706 5.36857 43.8013 4.95162C43.8321 4.53466 43.6803 4.12593 43.3844 3.82995L41.7257 2.17129C41.1656 1.61104 40.2542 1.61104 39.694 2.17129L37.9797 3.88539C37.8145 4.05064 37.7217 4.27462 37.7217 4.50835V15.8599C36.0104 15.2018 34.055 15.3794 32.4896 16.369L31.9926 16.6832C31.7753 16.5167 31.5402 16.3724 31.2901 16.2543V14.9166C31.2901 13.2624 30.5263 11.7836 29.3335 10.8129V8.73428C29.3335 6.57351 29.9982 4.5026 31.2562 2.74563L32.224 1.39364C32.5071 0.998175 32.416 0.447794 32.0204 0.164617C31.6248 -0.118326 31.0747 -0.0274175 30.7914 0.368161L29.8236 1.72004C28.3504 3.77792 27.5717 6.2033 27.5717 8.73428V9.86499C27.075 9.71019 26.5471 9.62668 26.0002 9.62668C25.4532 9.62668 24.9254 9.71007 24.4287 9.86499V8.73428C24.4287 6.2033 23.65 3.77792 22.1768 1.72015L21.2089 0.368161C20.9258 -0.0274175 20.3755 -0.118443 19.9799 0.164617C19.5843 0.447794 19.4931 0.998175 19.7764 1.39364L20.7442 2.74575C22.0021 4.5026 22.6669 6.57351 22.6669 8.73428V10.8128C21.474 11.7836 20.7102 13.2623 20.7102 14.9165V16.2542C20.4603 16.3723 20.225 16.5164 20.0078 16.6831L19.5107 16.3689C17.9452 15.3793 15.99 15.2017 14.2787 15.8598V4.50835C14.2787 4.27474 14.1859 4.05076 14.0206 3.88539L12.3065 2.17129C11.7462 1.61104 10.835 1.61104 10.2749 2.17129L8.61584 3.83018C8.32021 4.12593 8.16834 4.53466 8.19912 4.95162C8.22989 5.36857 8.44013 5.75064 8.77581 5.99976L12.3927 8.68331C12.4326 8.7129 12.474 8.73863 12.5169 8.76047V18.3637C12.5169 19.0974 12.8779 19.7834 13.4829 20.1984L14.1548 20.6594C15.1306 21.329 16.2911 21.6861 17.4689 21.686C17.6337 21.686 17.7992 21.6789 17.9643 21.6648L18.942 21.5812C19.0468 21.7769 19.1681 21.9621 19.3036 22.1359C17.6079 22.5044 16.0189 23.2521 14.6433 24.3351L12.7718 23.9048C10.8161 23.4555 8.79507 23.9164 7.22567 25.1717L7.21499 25.1803C6.85476 25.4685 6.63712 25.8982 6.61821 26.3592C6.60623 26.6491 6.67388 26.933 6.80895 27.1827L6.20443 32.7567L2.25251 33.858C1.63142 34.0311 1.1642 34.507 1.0027 35.1313C0.841324 35.7554 1.01926 36.3984 1.47862 36.8509L2.87325 38.2244C3.21186 38.5581 3.65583 38.7385 4.12106 38.7385C4.20915 38.7385 4.29794 38.732 4.38697 38.7189C4.94628 38.6366 5.42255 38.3047 5.69363 37.8087L7.77418 34.0029C7.82961 33.9016 7.86461 33.7902 7.87695 33.6754L8.4332 28.5467C9.21203 28.9795 10.0725 29.2495 10.9688 29.3359C10.5335 30.4897 10.283 31.717 10.2359 32.9796C10.2178 33.4658 10.5971 33.8746 11.0834 33.8927C11.5652 33.9066 11.9783 33.5314 11.9965 33.0451C12.0909 30.511 13.1496 28.1431 14.9776 26.3778C16.8102 24.6082 19.2231 23.6336 21.7714 23.6336H22.3601H25.1194V40.6581C25.1194 41.1447 25.5137 41.539 26.0003 41.539C26.4869 41.539 26.8812 41.1447 26.8812 40.6581V23.6337H30.2292C35.6234 23.6337 40.0119 28.0222 40.0119 33.4164V35.8877C40.0119 38.8581 39.0936 41.6963 37.3563 44.0957C37.0709 44.4897 37.159 45.0405 37.5531 45.3258C37.7092 45.4389 37.8899 45.4934 38.0691 45.4934C38.3419 45.4934 38.6109 45.3669 38.7832 45.129C39.5908 44.0136 40.2387 42.8131 40.7241 41.5537L42.0858 42.5651V58.3891C42.0858 59.2775 42.8085 60.0003 43.6971 60.0003H46.5274C47.1601 60.0003 47.7194 59.6442 47.9873 59.071C48.255 58.4977 48.1692 57.8402 47.7631 57.355L43.8628 52.6946C43.8577 52.6888 43.8528 52.6829 43.8477 52.6773V42.1219C43.8477 41.8432 43.7158 41.581 43.4921 41.4148L41.2892 39.7787C41.6083 38.5192 41.774 37.2155 41.774 35.8877V33.4164C41.774 31.9805 41.5097 30.6055 41.0287 29.3363C41.9262 29.2505 42.788 28.9802 43.5677 28.5468L44.124 33.6755C44.1363 33.7905 44.1713 33.9017 44.2268 34.0031L46.3073 37.8087C46.5784 38.3049 47.0547 38.6367 47.614 38.719C47.703 38.7322 47.7918 38.7386 47.8799 38.7386C48.3451 38.7386 48.7891 38.5581 49.1277 38.2246L50.5223 36.851C50.9812 36.3984 51.159 35.7556 50.9976 35.1313ZM39.4835 4.87316L40.7097 3.64707L41.872 4.80938L39.4833 6.58162V4.87316H39.4835ZM4.14772 36.9638C4.14467 36.9694 4.14197 36.9742 4.1301 36.976C4.11848 36.9773 4.11425 36.9738 4.10955 36.9692L2.71492 35.5956C2.70752 35.5883 2.70506 35.5858 2.70846 35.5723C2.71187 35.5589 2.71539 35.558 2.72549 35.5552L5.31179 34.8345L4.14772 36.9638ZM43.8473 55.4215L46.2047 58.2383H43.8473V55.4215ZM37.4682 17.6693C37.6245 17.7489 37.7217 17.9072 37.7217 18.0827V18.3637C37.7217 18.5166 37.6464 18.6595 37.5205 18.7459L36.8489 19.2069C36.0715 19.7405 35.1249 19.9902 34.1864 19.9095L33.5125 19.8518C33.5132 19.8209 33.5149 19.7902 33.5149 19.759C33.5149 19.1479 33.3722 18.5698 33.1191 18.0553L33.4308 17.8583C34.6428 17.0922 36.1899 17.0198 37.4682 17.6693ZM26.0002 11.3886C27.9455 11.3886 29.5283 12.9713 29.5283 14.9166V15.8845H28.9938C27.7892 15.8845 26.7113 16.4373 26.0002 17.3023C25.289 16.4373 24.2111 15.8845 23.0066 15.8845H22.472V14.9166C22.472 12.9711 24.0548 11.3886 26.0002 11.3886ZM10.1283 4.80938L11.2906 3.64707L12.5168 4.87316V6.58162L10.1283 4.80938ZM17.814 19.9094C16.8747 19.9895 15.9289 19.7403 15.1516 19.2068L14.4799 18.7458C14.354 18.6593 14.2787 18.5165 14.2787 18.3636V18.0825C14.2787 17.9072 14.3758 17.7487 14.532 17.6693C15.8104 17.0196 17.3572 17.0921 18.5694 17.8581L18.8812 18.0551C18.6281 18.5696 18.4853 19.1478 18.4853 19.7588C18.4853 19.7899 18.487 19.8206 18.4877 19.8516L17.814 19.9094ZM11.601 27.6045C10.444 27.6045 9.34064 27.1907 8.47219 26.435C9.59492 25.6036 11.0073 25.3068 12.3769 25.6218L13.1058 25.7894C12.607 26.3548 12.1684 26.9626 11.7936 27.6045H11.601ZM20.2472 19.759C20.2472 18.594 21.195 17.6463 22.36 17.6463H23.0066C24.1716 17.6463 25.1193 18.594 25.1193 19.759V21.8718H22.36C21.195 21.8719 20.2472 20.9241 20.2472 19.759ZM26.8811 21.8719V19.759C26.8811 18.594 27.8288 17.6463 28.9938 17.6463H29.6404C30.8054 17.6463 31.7531 18.594 31.7531 19.759C31.7531 20.9241 30.8054 21.8718 29.6404 21.8718H26.8811V21.8719ZM38.8887 25.7908L39.6235 25.6219C40.9937 25.3068 42.4072 25.6041 43.5283 26.4351C42.6597 27.1907 41.5564 27.6046 40.3993 27.6046H40.2003C39.8217 26.9572 39.3819 26.3501 38.8887 25.7908ZM49.2855 35.5956L47.8909 36.9693C47.8862 36.9737 47.8822 36.9773 47.8704 36.976C47.8584 36.9741 47.8558 36.9693 47.8527 36.9637L46.6888 34.8345L49.2752 35.5552C49.2852 35.558 49.2886 35.5589 49.2921 35.5723C49.2954 35.5858 49.2931 35.5884 49.2855 35.5956Z" fill="#790111"/>
</svg>
