<svg width="48" height="60" viewBox="0 0 48 60" fill="none" xmlns="http://www.w3.org/2000/svg">
<path d="M47.898 23.7558C47.756 23.2904 47.2635 23.0284 46.7982 23.1702L41.4019 24.8166C41.2599 24.86 41.1312 24.9384 41.0277 25.0448L34.7829 31.4606L30.6395 29.5753C29.9407 28.1067 29.0864 26.5805 28.0795 25.0022C28.0636 24.8251 28.041 24.6484 28.0115 24.4724L32.8506 17.5326C32.9809 17.3456 33.0338 17.1152 32.9979 16.8901L30.8922 3.67784C30.8158 3.19751 30.3657 2.87024 29.8835 2.94648C29.4031 3.02307 29.0756 3.47473 29.1522 3.95518L31.2019 16.8162L27.3168 22.3878C27.1579 22.0832 26.9475 21.8181 26.7002 21.5987L26.9738 21.1987C27.85 19.9183 27.6901 18.1921 26.5936 17.0943C26.1206 16.6208 25.5265 16.3133 24.8811 16.1986V0.881018C24.8811 0.394461 24.4868 0 24.0001 0C23.5135 0 23.1191 0.394461 23.1191 0.881018V16.2217C22.5193 16.3515 21.9682 16.6497 21.5241 17.0943C20.4275 18.1921 20.2675 19.9182 21.1437 21.1987L21.3735 21.5345C21.0939 21.7654 20.8579 22.0534 20.6833 22.388L19.8226 21.1536C19.5444 20.7544 18.9951 20.6566 18.596 20.9347C18.1969 21.213 18.099 21.7622 18.3772 22.1614L19.9885 24.4723C19.9474 24.7181 19.9197 24.9652 19.9046 25.2129C18.9744 26.6872 18.1762 28.121 17.5139 29.5054L13.2172 31.4604L6.97248 25.0446C6.86899 24.9382 6.74012 24.8597 6.59822 24.8165L1.20181 23.1701C0.736284 23.0283 0.244089 23.2904 0.102069 23.7557C-0.0399512 24.2211 0.22224 24.7134 0.687652 24.8554L5.86768 26.4357L12.3867 33.1334C12.5562 33.3076 12.7854 33.4001 13.0183 33.4001C13.1415 33.4001 13.2658 33.3743 13.3829 33.3209L16.4807 31.9114C16.3001 32.3896 16.1367 32.861 15.9927 33.3243C15.8483 33.789 16.1079 34.2828 16.5725 34.4271C16.6596 34.4541 16.7477 34.4671 16.8344 34.4671C17.21 34.4671 17.5581 34.2248 17.6754 33.8473C18.2423 32.023 19.1211 30.0606 20.2935 27.9916C20.4738 28.5036 20.7145 28.9985 21.015 29.4658V41.2581C21.015 42.0915 21.352 42.8477 21.8966 43.3979C20.2793 47.7134 17.8851 51.0405 14.7715 53.2952L16.8156 37.4159C16.8777 36.9333 16.5368 36.4918 16.0542 36.4296C15.5711 36.3669 15.13 36.7084 15.068 37.1909L14.6679 40.2987L8.8299 46.7448C8.723 46.8629 8.65005 47.0076 8.61892 47.1638L6.67693 56.8947L2.23742 58.2777C1.77283 58.4224 1.51358 58.9164 1.6583 59.3808C1.77577 59.7582 2.12371 60 2.49914 60C2.58595 60 2.67429 59.9871 2.76145 59.96L7.70055 58.4214C8.00855 58.3255 8.23938 58.069 8.30258 57.7526L10.2993 47.7472L14.274 43.3585L12.9972 53.2767C12.9112 53.9443 13.2163 54.5747 13.7933 54.9223C14.0636 55.0851 14.3608 55.1661 14.6569 55.1661C14.9919 55.1661 15.3252 55.0626 15.6163 54.8571C19.0523 52.4324 21.6882 48.8638 23.4608 44.2425C23.6541 44.2811 23.8539 44.3018 24.0585 44.3018C24.2633 44.3018 24.4634 44.2811 24.657 44.2424C25.0627 45.299 25.5173 46.3109 26.0146 47.2589C26.1721 47.5591 26.4783 47.7309 26.7954 47.7309C26.9334 47.7309 27.0733 47.6984 27.2039 47.6298C27.6349 47.4038 27.8009 46.8713 27.5749 46.4405C27.0761 45.4894 26.6221 44.468 26.2205 43.3979C26.7651 42.8477 27.102 42.0916 27.102 41.2582V29.2771C27.3724 28.8259 27.5897 28.3513 27.7513 27.8619C29.6382 31.1605 30.7648 34.1614 31.1052 36.8054L33.2279 53.2952C31.8071 52.266 30.521 50.9973 29.403 49.5218C29.1092 49.134 28.5563 49.0578 28.1687 49.3517C27.7808 49.6455 27.7047 50.1982 27.9986 50.5859C29.2709 52.2649 30.7461 53.702 32.3829 54.8571C32.6741 55.0626 33.0074 55.1661 33.3424 55.1661C33.6384 55.1661 33.9357 55.0851 34.206 54.9223C34.7829 54.5748 35.088 53.9441 35.002 53.2767L33.7252 43.3584L37.7 47.7472L39.6968 57.7526C39.7598 58.0688 39.9908 58.3254 40.2987 58.4214L45.2378 59.96C45.3249 59.9871 45.4133 60 45.5 60C45.8754 60 46.2233 59.758 46.3408 59.3808C46.4855 58.9163 46.2263 58.4224 45.7617 58.2777L41.3222 56.8947L39.381 47.1638C39.3499 47.0076 39.2769 46.8629 39.17 46.7448L33.3321 40.2988L32.8534 36.5805C32.6669 35.1318 32.2684 33.5943 31.6628 31.9767L34.6172 33.3209C34.7343 33.3743 34.8587 33.4001 34.9818 33.4001C35.2146 33.4001 35.4438 33.3076 35.6133 33.1334L42.1325 26.4357L47.3124 24.8554C47.7778 24.7135 48.0399 24.2212 47.898 23.7558ZM23.1278 22.6679H24.8726C25.2469 22.6679 25.5858 22.8745 25.7573 23.2071C26.6409 24.9207 26.5255 26.9819 25.4562 28.5863L24.9912 29.2839C24.7666 29.621 24.4053 29.8144 24.0001 29.8144C23.5949 29.8144 23.2337 29.621 23.009 29.2839L22.5441 28.5863C21.4747 26.9819 21.3594 24.9207 22.243 23.2071C22.4146 22.8745 22.7536 22.6679 23.1278 22.6679ZM24.0002 31.5764C24.4744 31.5764 24.9318 31.4624 25.3405 31.2542V33.5853H22.7772V31.3117C23.1554 31.4837 23.571 31.5764 24.0002 31.5764ZM22.7772 35.3474H25.3405V37.3563H22.7772V35.3474ZM22.598 20.2036C22.1983 19.6196 22.2733 18.8312 22.7772 18.3332C23.0614 18.0522 23.4547 17.9096 23.8543 17.9096H24.2636C24.6632 17.9096 25.0566 18.0523 25.3408 18.3334C25.8445 18.8316 25.9194 19.6197 25.5197 20.2037L25.0883 20.8343C25.0554 20.8824 25.0016 20.9109 24.9435 20.9106C24.613 20.9086 23.4992 20.9076 23.1711 20.9076C23.1133 20.9076 23.06 20.8791 23.0274 20.8314L22.598 20.2036ZM22.7772 41.2581V39.1184H25.3405V41.2581C25.3405 41.9648 24.7655 42.5398 24.0589 42.5398C23.3522 42.5398 22.7772 41.9648 22.7772 41.2581Z" fill="#790111"/>
</svg>
