<svg width="40" height="60" viewBox="0 0 40 60" fill="none" xmlns="http://www.w3.org/2000/svg">
<path d="M38.4642 11.8129L34.7486 10.6054C34.4807 10.5184 34.1879 10.5647 33.9602 10.7302C33.7327 10.8955 33.5979 11.1599 33.5979 11.4411V11.513H28.9249C28.4394 11.513 28.046 11.9064 28.046 12.3919C28.046 12.8774 28.4394 13.2708 28.9249 13.2708H33.5979V14.2436H26.2555V11.016C26.2555 10.5305 25.8621 10.1371 25.3766 10.1371H23.5565V8.67199C23.5565 8.18648 23.1631 7.79309 22.6776 7.79309H18.3287V6.77496H19.1388C19.5406 6.77496 19.8911 6.50273 19.9904 6.11344L20.5986 3.73113H21.3129C22.3416 3.73113 23.1785 2.89418 23.1785 1.86563C23.1785 0.836953 22.3416 0 21.3129 0H13.5866C12.558 0 11.721 0.836953 11.721 1.86563C11.721 2.89418 12.558 3.73113 13.5866 3.73113H14.3009L14.9092 6.11344C15.0086 6.50262 15.3591 6.77496 15.7608 6.77496H16.571V7.79309H12.2222H6.20381C5.82612 7.79309 5.49061 8.03449 5.37061 8.3925L1.25721 20.6614C1.18315 20.8826 1.19991 21.124 1.30385 21.3326C1.4078 21.5413 1.59038 21.7002 1.81139 21.7743L2.23596 21.9164C2.56456 22.0268 2.90253 22.0816 3.23932 22.0816C3.71827 22.0816 4.1944 21.9707 4.63596 21.7509C5.38737 21.377 5.94823 20.7326 6.21518 19.9369L8.78744 12.2643H11.3432V18.8427C11.3432 19.3282 11.7366 19.7216 12.2221 19.7216H12.7043V24.0783H9.56369C7.2094 24.0783 5.17397 25.8345 4.82909 28.1633L0.983113 54.1321C0.76491 55.6056 1.1978 57.0975 2.17092 58.2254C3.14393 59.3531 4.55639 60 6.04596 60H28.8549C30.3444 60 31.7569 59.3531 32.7299 58.2253C33.703 57.0974 34.1359 55.6055 33.9177 54.132L30.0717 28.1631C29.727 25.8342 27.6914 24.078 25.3372 24.078H22.1966V19.7215H22.6777C23.1632 19.7215 23.5566 19.3281 23.5566 18.8426V17.3775H25.3767C25.8622 17.3775 26.2556 16.9841 26.2556 16.4986V16.0015H33.598V16.0737C33.598 16.3549 33.7327 16.6193 33.9604 16.7846C34.1125 16.8952 34.2936 16.9526 34.477 16.9526C34.5681 16.9526 34.6598 16.9384 34.7486 16.9096L38.4642 15.7021C38.8263 15.5844 39.0715 15.2469 39.0715 14.8662V12.6486C39.0715 12.268 38.8263 11.9305 38.4642 11.8129ZM11.3433 10.5062H8.15522V10.5063C7.7774 10.5063 7.44202 10.7477 7.3219 11.1059L4.54854 19.3779C4.431 19.7285 4.18397 20.0123 3.8528 20.1771C3.6544 20.2759 3.43784 20.3239 3.22479 20.3227L6.83592 9.55078H11.3433V10.5062ZM16.4434 5.01703L15.8352 2.63473C15.7358 2.24566 15.3853 1.9732 14.9836 1.9732H13.5866C13.5272 1.9732 13.4788 1.92492 13.4788 1.86551C13.4788 1.80609 13.5272 1.7577 13.5866 1.7577H21.3129C21.3723 1.7577 21.4207 1.80609 21.4207 1.86551C21.4207 1.92492 21.3723 1.9732 21.3129 1.9732H19.9159C19.5142 1.9732 19.1637 2.24555 19.0643 2.63473L18.4561 5.01703H16.4434ZM25.3371 25.836C26.8268 25.836 28.1146 26.9471 28.3329 28.4208L32.1789 54.3896C32.3222 55.3571 32.0379 56.3366 31.3991 57.0772C30.7602 57.8176 29.8329 58.2423 28.8549 58.2423H6.04596C5.06791 58.2423 4.14061 57.8176 3.50171 57.0772C2.86292 56.3367 2.57862 55.3571 2.72194 54.3896L6.56791 28.4208C6.78612 26.9473 8.07413 25.836 9.56369 25.836H12.8801H13.5832H17.7448C18.2303 25.836 18.6237 25.4426 18.6237 24.9571C18.6237 24.4716 18.2303 24.0782 17.7448 24.0782H14.4621V19.7215H20.4387V24.9571C20.4387 25.4425 20.8321 25.836 21.3176 25.836H25.3371ZM24.4979 15.6197H22.6777C22.1922 15.6197 21.7988 16.0131 21.7988 16.4986V17.9637H21.3177H13.5833H13.1011V11.3852V9.5509H21.7989V11.016C21.7989 11.5015 22.1923 11.8949 22.6778 11.8949H24.4979V15.6197ZM37.3137 14.2276L35.3558 14.8639V12.651L37.3137 13.2873V14.2276Z" fill="#790111"/>
</svg>
