<svg width="31" height="31" viewBox="0 0 31 31" fill="none" xmlns="http://www.w3.org/2000/svg">
<path d="M26.3867 30.5H3.88672C2.85156 30.5 1.96777 30.1338 1.23535 29.4014C0.50293 28.6689 0.136719 27.7852 0.136719 26.75V4.25C0.136719 3.21484 0.50293 2.33105 1.23535 1.59863C1.96777 0.866211 2.85156 0.5 3.88672 0.5H26.3867C27.4219 0.5 28.3057 0.866211 29.0381 1.59863C29.7705 2.33105 30.1367 3.21484 30.1367 4.25V26.75C30.1367 27.7852 29.7705 28.6689 29.0381 29.4014C28.3057 30.1338 27.4219 30.5 26.3867 30.5ZM23.9551 8C23.8379 8.05859 23.6621 8.1709 23.4277 8.33691C23.1934 8.50293 23.0029 8.62988 22.8564 8.71777C22.71 8.80566 22.5293 8.89844 22.3145 8.99609C22.0996 9.09375 21.8945 9.16211 21.6992 9.20117C20.9766 8.40039 20.0879 8 19.0332 8C16.748 8 15.6055 8.95703 15.6055 10.8711V12.6289C12.4609 12.4531 10.0488 11.291 8.36914 9.14258C7.88086 9.65039 7.63672 10.207 7.63672 10.8125C7.63672 12.1016 8.11523 13.0781 9.07227 13.7422C8.93555 13.7422 8.76465 13.752 8.55957 13.7715C8.35449 13.791 8.18848 13.791 8.06152 13.7715C7.93457 13.752 7.79297 13.7031 7.63672 13.625C7.63672 14.5234 7.87598 15.2705 8.35449 15.8662C8.83301 16.4619 9.49219 16.8477 10.332 17.0234C10.1367 17.2578 9.86328 17.375 9.51172 17.375C9.19922 17.375 8.92578 17.2871 8.69141 17.1113C8.69141 17.873 9.05762 18.4639 9.79004 18.8838C10.5225 19.3037 11.3477 19.5234 12.2656 19.543C11.9141 20.0703 11.4014 20.4658 10.7275 20.7295C10.0537 20.9932 9.33594 21.125 8.57422 21.125C8.30078 21.125 7.9248 21.0566 7.44629 20.9199C6.96777 20.7832 6.71875 20.7148 6.69922 20.7148C7.01172 21.3398 7.65137 21.877 8.61816 22.3262C9.58496 22.7754 10.8105 23 12.2949 23C13.6035 23 14.8242 22.7705 15.957 22.3115C17.0898 21.8525 18.0566 21.2422 18.8574 20.4805C19.6582 19.7188 20.3467 18.8496 20.9229 17.873C21.499 16.8965 21.9287 15.8857 22.2119 14.8408C22.4951 13.7959 22.6367 12.7656 22.6367 11.75C22.6367 11.7109 22.7539 11.6279 22.9883 11.501C23.2227 11.374 23.4961 11.208 23.8086 11.0029C24.1211 10.7979 24.3555 10.5684 24.5117 10.3145C23.457 10.3145 22.7539 10.334 22.4023 10.373C23.0859 9.96289 23.6035 9.17188 23.9551 8Z" fill="white"/>
</svg>
